<?xml version="1.0" encoding="UTF-8"?>
<svg version="1.1" viewBox="0 0 700 500" xmlns="http://www.w3.org/2000/svg" xmlns:xlink="http://www.w3.org/1999/xlink">
  <path d="m515.16 107.84v-0.60156c0-11.43-10.062-22.422-21.875-21.875-11.867 0.54687-21.875 9.625-21.875 21.875v134.04c-21.328-12.906-42.875-25.812-64.258-38.719-27.562-16.625-55.125-33.25-82.633-49.875-23.789-14.383-47.578-28.711-71.422-43.094-11.539-7-23.023-14.109-34.672-20.945-0.16406-0.10938-0.38281-0.21875-0.54688-0.27344-14.273-8.6406-32.977 2.4609-32.977 18.867v302.91 42 0.60156c0 1.1484 0.16406 2.3516 0.38281 3.5 0.65625 3.7734 2.4062 7.3828 4.8672 10.391 0 0.054687 0.054687 0.054687 0.10937 0.10937 4.375 4.9219 10.609 7.8203 16.953 7.875 3.6641 0 7.3281-0.92969 10.719-2.9531 9.5156-5.7422 19.031-11.484 28.547-17.227 22.859-13.781 45.719-27.562 68.523-41.344 27.508-16.625 55.07-33.25 82.633-49.875 23.789-14.383 47.688-28.711 71.477-43.094 0.76562-0.4375 1.2578-0.875 2.3516-1.3672v91.383c0 14-0.27344 28-0.10938 42 0 0.21875-0.054687 0.38281-0.054687 0.60156 0 11.43 10.117 22.422 21.93 21.875 11.867-0.54687 21.93-9.625 21.93-21.875v-302.91-42z"/>
</svg>
