<?xml version="1.0" encoding="UTF-8"?>
<svg version="1.1" viewBox="0 0 700 500" xmlns="http://www.w3.org/2000/svg" xmlns:xlink="http://www.w3.org/1999/xlink">
  <path d="m391.84 427.14v-294.28c0-9.6289 7.8359-17.469 17.469-17.469h50.926c9.6289 0 17.469 7.8359 17.469 17.469v294.29c0 9.6289-7.8359 17.469-17.469 17.469h-50.926c-9.6328-0.003906-17.469-7.8398-17.469-17.473z"/>
  <path d="m222.3 427.14v-294.28c0-9.6289 7.8359-17.469 17.469-17.469h50.926c9.6289 0 17.469 7.8359 17.469 17.469v294.29c0 9.6289-7.8359 17.469-17.469 17.469h-50.926c-9.6328-0.003906-17.469-7.8398-17.469-17.473z"/>
</svg>
