<?xml version="1.0" encoding="UTF-8"?>
<svg version="1.1" viewBox="0 0 700 500" xmlns="http://www.w3.org/2000/svg" xmlns:xlink="http://www.w3.org/1999/xlink">
  <path d="m184.84 149.84v302.97c0 12.25 10.062 21.328 21.93 21.875 11.812 0.54688 21.93-10.445 21.93-21.875 0-0.21875-0.054687-0.38281-0.054687-0.60156 0.16406-14-0.054688-28-0.054688-42v-91.438c1.0938 0.4375 1.5859 0.875 2.3516 1.3672 23.789 14.383 47.688 28.711 71.477 43.094 27.562 16.625 55.07 33.25 82.633 49.875 22.859 13.781 45.719 27.562 68.523 41.344 9.5156 5.7422 19.031 11.484 28.547 17.227 3.3906 2.0781 7.1094 3.0078 10.719 2.9531 6.3438-0.054687 12.633-2.9531 16.953-7.875 0.054687-0.054687 0.054687-0.054687 0.10938-0.10937 2.4609-3.0078 4.2109-6.6172 4.8672-10.391 0.21875-1.1484 0.38281-2.2969 0.38281-3.5v-0.60156-42-302.91c0-16.406-18.703-27.508-32.977-18.867-0.16406 0.10938-0.38281 0.21875-0.54688 0.27344-11.648 6.7812-23.133 13.945-34.672 20.945-23.789 14.383-47.633 28.711-71.422 43.094-27.562 16.625-55.125 33.25-82.633 49.875-21.383 12.906-42.93 25.812-64.258 38.719v-134.04c0-12.25-10.008-21.328-21.875-21.875-11.812-0.54688-21.875 10.445-21.875 21.875v0.60156c-0.054688 14-0.054688 28-0.054688 42z"/>
</svg>
