<?xml version="1.0" encoding="UTF-8"?>
<svg version="1.1" viewBox="0 0 700 500" xmlns="http://www.w3.org/2000/svg" xmlns:xlink="http://www.w3.org/1999/xlink">
  <path d="m522.39 247.53 29.191-25.836c8.5898-7.6016 10.664-20.328 4.9258-30.258l-26.555-46.004c-5.7305-9.9297-17.789-14.496-28.668-10.859l-36.988 12.371c-2.5195 0.84375-5.2812 0.34375-7.3867-1.3281-13.371-10.648-28.176-19.211-44.012-25.445-2.4922-0.98438-4.293-3.1211-4.8242-5.7266l-7.7773-38.176c-2.2852-11.238-12.273-19.391-23.738-19.391h-53.113c-11.469 0-21.453 8.1523-23.738 19.391l-7.7773 38.176c-0.53125 2.6016-2.3281 4.7422-4.8242 5.7266-15.836 6.2344-30.641 14.797-44.012 25.445-2.1055 1.6719-4.8672 2.1719-7.3867 1.3281l-36.992-12.371c-10.883-3.6406-22.938 0.92969-28.668 10.859l-26.555 46.004c-5.7383 9.9297-3.6641 22.656 4.9258 30.258l29.191 25.836c1.9922 1.7539 2.9414 4.3984 2.543 7.0547-1.2422 8.3555-1.8711 16.91-1.8711 25.414s0.62891 17.059 1.8711 25.414c0.39844 2.6562-0.55078 5.3008-2.543 7.0547l-29.191 25.836c-8.5898 7.6016-10.664 20.328-4.9258 30.258l26.555 46.004c5.7383 9.9297 17.789 14.504 28.668 10.859l36.988-12.371c2.5195-0.84766 5.2812-0.34375 7.3867 1.3281 13.371 10.648 28.176 19.211 44.012 25.445 2.4922 0.98438 4.293 3.1211 4.8242 5.7266l7.7773 38.176c2.2852 11.238 12.273 19.391 23.738 19.391h53.113c11.469 0 21.453-8.1523 23.738-19.391l7.7773-38.176c0.53125-2.6016 2.3281-4.7422 4.8242-5.7266 15.836-6.2344 30.641-14.797 44.012-25.445 2.1055-1.6719 4.8672-2.1719 7.3867-1.3281l36.992 12.371c10.879 3.6406 22.938-0.92969 28.668-10.859l26.555-46.004c5.7383-9.9297 3.6641-22.656-4.9258-30.258l-29.191-25.836c-1.9922-1.7539-2.9414-4.3984-2.543-7.0547 1.2422-8.3555 1.8711-16.91 1.8711-25.414s-0.62891-17.059-1.8711-25.414c-0.39844-2.6562 0.55469-5.2969 2.543-7.0547zm-90.77 32.469c0 45.078-36.543 81.621-81.621 81.621s-81.621-36.543-81.621-81.621 36.543-81.621 81.621-81.621 81.621 36.543 81.621 81.621z"/>
</svg>
