<?xml version="1.0" encoding="UTF-8"?>
<svg  version="1.1" viewBox="0 0 700 500" xmlns="http://www.w3.org/2000/svg" xmlns:xlink="http://www.w3.org/1999/xlink">
  <path d="m228.67 192.16h-86.77v-38.281h86.766c17.867 0 34.695 7.8594 46.172 21.551l50.488 60.266-29.34 24.586-50.492-60.266c-4.1836-4.9883-10.316-7.8555-16.824-7.8555z"/>
  <path d="m511.52 313.32 73.652 73.66-73.652 73.652-27.07-27.07 27.449-27.441h-65.602c-17.871 0-34.699-7.8594-46.172-21.551l-52.223-62.332 29.34-24.582 52.223 62.328c4.1836 4.9922 10.32 7.8594 16.832 7.8594h65.598l-27.449-27.449z"/>
  <path d="m511.52 99.367 73.652 73.652-73.652 73.66-27.07-27.07 27.449-27.449h-65.602c-6.5117 0-12.648 2.8672-16.832 7.8594l-154.62 184.55c-11.48 13.695-28.305 21.551-46.172 21.551l-86.77 0.003906v-38.281h86.766c6.5078 0 12.645-2.8672 16.828-7.8594l154.62-184.55c11.473-13.695 28.301-21.551 46.172-21.551h65.598l-27.449-27.441z"/>
</svg>
