<?xml version="1.0" encoding="UTF-8"?>
<svg version="1.1" viewBox="0 0 700 500" xmlns="http://www.w3.org/2000/svg" xmlns:xlink="http://www.w3.org/1999/xlink">
  <path d="m436.64 128.95v302.11c0 6.668-3.6797 12.691-9.6094 15.738-2.5664 1.3125-5.332 1.9648-8.0938 1.9648-3.6211 0-7.2227-1.1211-10.297-3.3242l-116.28-83.402h-66.961c-15.602 0-28.297-12.691-28.297-28.297l0.003907-107.47c0-15.602 12.691-28.297 28.297-28.297h66.957l116.28-83.398c5.4141-3.8828 12.465-4.4023 18.391-1.3633 5.9297 3.0469 9.6094 9.0742 9.6094 15.742z"/>
  <path d="m487.88 230.54c13.211 13.211 20.484 30.777 20.484 49.465s-7.2734 36.254-20.484 49.465l-19.336-19.336c8.0508-8.043 12.48-18.746 12.48-30.129 0-11.379-4.4297-22.082-12.48-30.129z"/>
</svg>
