<?xml version="1.0" encoding="UTF-8"?>
<svg version="1.1" viewBox="0 0 700 500" xmlns="http://www.w3.org/2000/svg" xmlns:xlink="http://www.w3.org/1999/xlink">
  <path d="m437.79 310.82 30.816-30.816-30.816-30.816 27.07-27.07 30.816 30.816 30.816-30.816 27.07 27.07-30.816 30.816 30.816 30.816-27.07 27.07-30.816-30.816-30.816 30.816z"/>
  <path d="m363.3 445.43-116.28-83.398h-66.957c-15.602 0-28.297-12.691-28.297-28.297v-107.47c0-15.602 12.691-28.297 28.297-28.297h66.961l116.28-83.398c5.4141-3.8828 12.465-4.4023 18.391-1.3633 5.9297 3.0469 9.6094 9.0742 9.6094 15.738v302.11c0 6.668-3.6797 12.691-9.6094 15.738-2.5664 1.3125-5.332 1.9648-8.0938 1.9648-3.6211 0-7.2266-1.1211-10.301-3.3242z"/>
</svg>
