<?xml version="1.0" encoding="UTF-8"?>
<svg version="1.1" viewBox="0 0 700 500" xmlns="http://www.w3.org/2000/svg" xmlns:xlink="http://www.w3.org/1999/xlink">
  <path d="m407.58 128.95v302.11c0 6.668-3.6875 12.691-9.6133 15.738-2.5586 1.3125-5.332 1.9648-8.0898 1.9648-3.6211 0-7.2227-1.1211-10.297-3.3242l-116.28-83.402h-66.961c-15.602 0-28.297-12.691-28.297-28.297l0.003906-107.47c0-15.602 12.691-28.297 28.297-28.297h66.961l116.28-83.398c5.4141-3.8828 12.465-4.4023 18.387-1.3633 5.9219 3.0469 9.6094 9.0742 9.6094 15.742z"/>
  <path d="m462.69 333.33-27.07-27.07c14.48-14.48 14.48-38.039 0-52.523l27.07-27.07c29.406 29.406 29.406 77.258 0 106.66z"/>
  <path d="m503.78 185.58c25.223 25.223 39.113 58.758 39.113 94.422 0 35.668-13.891 69.203-39.113 94.422l-27.066-27.07c37.137-37.137 37.137-97.566 0-134.71z"/>
</svg>
